<svg width="12" height="12" viewBox="0 0 12 12" fill="none" xmlns="http://www.w3.org/2000/svg">
<path fill-rule="evenodd" clip-rule="evenodd" d="M10.5 4.5L9.375 3.375L6.795 0.795L6 0L5.205 0.795L2.625 3.375L1.5 4.5H3.75V9.75H8.25V4.5H10.5ZM6 1.59075L7.78425 3.375H7.125V8.625H4.875V3.375H4.21575L6 1.59075ZM4.3125 10.875C4.16332 10.875 4.02024 10.9343 3.91475 11.0398C3.80926 11.1452 3.75 11.2883 3.75 11.4375C3.75 11.5867 3.80926 11.7298 3.91475 11.8352C4.02024 11.9407 4.16332 12 4.3125 12H7.6875C7.83668 12 7.97976 11.9407 8.08525 11.8352C8.19074 11.7298 8.25 11.5867 8.25 11.4375C8.25 11.2883 8.19074 11.1452 8.08525 11.0398C7.97976 10.9343 7.83668 10.875 7.6875 10.875H4.3125Z" fill="#856C66"/>
</svg>
