<svg width="30" height="30" viewBox="0 0 30 30" fill="none" xmlns="http://www.w3.org/2000/svg">
<path d="M12.875 9.625C12.7592 9.7394 12.6673 9.87565 12.6045 10.0259C12.5418 10.1761 12.5095 10.3372 12.5095 10.5C12.5095 10.6628 12.5418 10.8239 12.6045 10.9741C12.6673 11.1243 12.7592 11.2606 12.875 11.375L15.25 13.75H3.75C3.0625 13.75 2.5 14.3125 2.5 15C2.5 15.6875 3.0625 16.25 3.75 16.25H15.25L12.875 18.625C12.7592 18.7394 12.6673 18.8757 12.6045 19.0259C12.5418 19.1761 12.5095 19.3372 12.5095 19.5C12.5095 19.6628 12.5418 19.8239 12.6045 19.9741C12.6673 20.1243 12.7592 20.2606 12.875 20.375C13.3625 20.8625 14.1375 20.8625 14.625 20.375L19.1125 15.8875C19.2284 15.7719 19.3203 15.6345 19.383 15.4833C19.4458 15.3321 19.4781 15.17 19.4781 15.0063C19.4781 14.8425 19.4458 14.6804 19.383 14.5292C19.3203 14.378 19.2284 14.2406 19.1125 14.125L14.625 9.625C14.5106 9.5092 14.3743 9.41726 14.2241 9.35451C14.0739 9.29176 13.9128 9.25945 13.75 9.25945C13.5872 9.25945 13.4261 9.29176 13.2759 9.35451C13.1257 9.41726 12.9894 9.5092 12.875 9.625ZM25 23.75H16.25C15.5625 23.75 15 24.3125 15 25C15 25.6875 15.5625 26.25 16.25 26.25H25C26.375 26.25 27.5 25.125 27.5 23.75V6.25C27.5 4.875 26.375 3.75 25 3.75H16.25C15.5625 3.75 15 4.3125 15 5C15 5.6875 15.5625 6.25 16.25 6.25H25V23.75Z" fill="#856C66"/>
</svg>
