<svg width="31" height="30" viewBox="0 0 31 30" fill="none" xmlns="http://www.w3.org/2000/svg">
<g clip-path="url(#clip0_80_990)">
<path d="M0.666504 3.32786L0.761369 26.6061C6.34704 24.2397 11.3562 24.539 15.6819 28C20.2687 25.3432 25.067 23.9258 30.5716 26.6379L30.6665 3.58077C26.023 1.75592 20.9668 0.842679 15.6827 4.62576C11.4941 1.4965 5.96515 1.39323 0.666504 3.32786Z" stroke="#856C66" stroke-width="1.5" stroke-linecap="round" stroke-linejoin="round"/>
<path d="M6.43604 18.8963C9.40229 18.0506 12.1385 17.9919 14.3304 19.7969M6.43604 17.035C9.40229 16.1894 12.1385 16.13 14.3304 17.935M6.43604 15.2231C9.40229 14.3775 12.1385 14.3181 14.3304 16.1231M6.43604 13.2769C9.40229 12.4313 12.1385 12.3719 14.3304 14.1769M6.43604 11.3788C9.40229 10.5338 12.1385 10.4744 14.3304 12.2794" stroke="#856C66" stroke-width="1.5" stroke-linecap="round" stroke-linejoin="round"/>
<path d="M6.43604 9.60751C9.40229 8.76188 12.1385 8.70251 14.3304 10.5075M17.221 15.0063C17.1729 16.7125 18.2379 17.9038 19.8692 18.8325L23.2942 18.4219C25.4448 16.8781 25.4254 15.3963 25.3585 13.9156L17.221 15.0063ZM18.1198 10.2163L17.1967 12.76C18.281 12.8238 19.4254 12.3469 20.391 13.4775L21.0473 11.7375C19.5273 11.865 18.8773 10.865 18.1198 10.2163Z" stroke="#856C66" stroke-width="1.5" stroke-linecap="round" stroke-linejoin="round"/>
</g>
<defs>
<clipPath id="clip0_80_990">
<rect width="30" height="30" fill="white" transform="translate(0.666504)"/>
</clipPath>
</defs>
</svg>
