<svg width="36" height="35" viewBox="0 0 36 35" fill="none" xmlns="http://www.w3.org/2000/svg">
<path d="M18 0.75C27.2508 0.75 34.75 8.24923 34.75 17.5C34.75 26.7508 27.2508 34.25 18 34.25C8.74923 34.25 1.25 26.7508 1.25 17.5C1.25 8.24923 8.74923 0.75 18 0.75Z" stroke="#856C66" stroke-width="1.5"/>
<path d="M11.5386 20.2274C13.6149 19.6354 15.5303 19.5943 17.0646 20.8578M11.5386 18.9245C13.6149 18.3326 15.5303 18.291 17.0646 19.5545M11.5386 17.6562C13.6149 17.0643 15.5303 17.0227 17.0646 18.2862M11.5386 16.2938C13.6149 15.7019 15.5303 15.6603 17.0646 16.9238M11.5386 14.9651C13.6149 14.3736 15.5303 14.3321 17.0646 15.5956" stroke="#856C66" stroke-width="1.5" stroke-linecap="round" stroke-linejoin="round"/>
<path d="M9.90625 11.2206L9.95744 23.744C12.9714 22.4709 15.6742 22.6319 18.0083 24.4939C20.4832 23.0646 23.0724 22.302 26.0426 23.7611L26.0938 11.3566C23.5882 10.3749 20.8599 9.88355 18.0088 11.9188C15.7486 10.2353 12.7653 10.1797 9.90625 11.2206Z" stroke="#856C66" stroke-width="1.5" stroke-linecap="round" stroke-linejoin="round"/>
<path d="M11.5386 13.7252C13.6149 13.1333 15.5303 13.0917 17.0646 14.3552M19.0881 17.5044C19.0544 18.6987 19.7999 19.5326 20.9418 20.1827L23.3393 19.8953C24.8447 18.8147 24.8311 17.7774 24.7843 16.7409L19.0881 17.5044ZM19.7172 14.1514L19.071 15.932C19.8301 15.9766 20.6311 15.6428 21.3071 16.4342L21.7665 15.2162C20.7025 15.3055 20.2474 14.6055 19.7172 14.1514Z" stroke="#856C66" stroke-width="1.5" stroke-linecap="round" stroke-linejoin="round"/>
</svg>
