<svg width="60" height="60" viewBox="0 0 60 60" fill="none" xmlns="http://www.w3.org/2000/svg">
<path fill-rule="evenodd" clip-rule="evenodd" d="M18.1125 5H41.8875C44.785 5 46.2325 5 47.4025 5.4075C48.5052 5.79931 49.5029 6.43966 50.3183 7.27896C51.1338 8.11826 51.7451 9.134 52.105 10.2475C52.5 11.4525 52.5 12.9425 52.5 15.925V50.935C52.5 53.08 50.0375 54.22 48.48 52.795C48.043 52.3912 47.4699 52.167 46.875 52.167C46.2801 52.167 45.707 52.3912 45.27 52.795L44.0625 53.9C43.297 54.6079 42.2927 55.0011 41.25 55.0011C40.2073 55.0011 39.203 54.6079 38.4375 53.9C37.672 53.1921 36.6677 52.7989 35.625 52.7989C34.5823 52.7989 33.578 53.1921 32.8125 53.9C32.047 54.6079 31.0427 55.0011 30 55.0011C28.9573 55.0011 27.953 54.6079 27.1875 53.9C26.422 53.1921 25.4177 52.7989 24.375 52.7989C23.3323 52.7989 22.328 53.1921 21.5625 53.9C20.797 54.6079 19.7927 55.0011 18.75 55.0011C17.7073 55.0011 16.703 54.6079 15.9375 53.9L14.73 52.795C14.293 52.3912 13.7199 52.167 13.125 52.167C12.5301 52.167 11.957 52.3912 11.52 52.795C9.9625 54.22 7.5 53.08 7.5 50.935V15.925C7.5 12.9425 7.5 11.45 7.895 10.25C8.645 7.9675 10.3825 6.1775 12.5975 5.4075C13.7675 5 15.215 5 18.1125 5ZM37.65 21.25C37.8142 21.0661 37.9405 20.8518 38.0218 20.6191C38.1031 20.3864 38.1378 20.14 38.1238 19.8939C38.1099 19.6479 38.0476 19.4069 37.9406 19.1849C37.8336 18.9629 37.6839 18.7642 37.5 18.6C37.3161 18.4358 37.1018 18.3095 36.8691 18.2282C36.6364 18.1469 36.39 18.1122 36.1439 18.1262C35.8979 18.1401 35.6569 18.2024 35.4349 18.3094C35.2129 18.4164 35.0142 18.5661 34.85 18.75L27.3225 27.185L25.1475 24.75C24.8151 24.3827 24.3508 24.1618 23.8561 24.1357C23.3614 24.1096 22.8765 24.2803 22.5072 24.6106C22.138 24.9409 21.9145 25.4038 21.8855 25.8984C21.8565 26.3929 22.0244 26.8788 22.3525 27.25L25.9225 31.25C26.0984 31.447 26.3139 31.6047 26.555 31.7126C26.796 31.8206 27.0571 31.8764 27.3213 31.8764C27.5854 31.8764 27.8465 31.8206 28.0875 31.7126C28.3286 31.6047 28.5441 31.447 28.72 31.25L37.65 21.25ZM18.75 36.875C18.2527 36.875 17.7758 37.0725 17.4242 37.4242C17.0725 37.7758 16.875 38.2527 16.875 38.75C16.875 39.2473 17.0725 39.7242 17.4242 40.0758C17.7758 40.4275 18.2527 40.625 18.75 40.625H41.25C41.7473 40.625 42.2242 40.4275 42.5758 40.0758C42.9275 39.7242 43.125 39.2473 43.125 38.75C43.125 38.2527 42.9275 37.7758 42.5758 37.4242C42.2242 37.0725 41.7473 36.875 41.25 36.875H18.75Z" fill="#8FD6EA"/>
</svg>
