<svg width="20" height="20" viewBox="0 0 20 20" fill="none" xmlns="http://www.w3.org/2000/svg">
<path d="M12.0833 8.33326C12.0833 7.67409 12.9608 7.49909 13.1933 8.11659C13.7566 9.60826 14.1666 10.9449 14.1666 11.6666C14.1666 12.7717 13.7276 13.8315 12.9462 14.6129C12.1648 15.3943 11.105 15.8333 9.99992 15.8333C8.89485 15.8333 7.83504 15.3943 7.05364 14.6129C6.27224 13.8315 5.83325 12.7717 5.83325 11.6666C5.83325 10.8916 6.30658 9.40742 6.93492 7.78076C7.74742 5.67409 8.15409 4.62076 8.65659 4.56409C8.81659 4.54576 8.99242 4.57826 9.13575 4.65326C9.58325 4.88659 9.58325 6.03576 9.58325 8.33326C9.58325 8.66478 9.71495 8.98272 9.94937 9.21714C10.1838 9.45156 10.5017 9.58326 10.8333 9.58326C11.1648 9.58326 11.4827 9.45156 11.7171 9.21714C11.9516 8.98272 12.0833 8.66478 12.0833 8.33326Z" stroke="#856C66"/>
<path d="M9.16656 15.8333L8.94739 15.2858C8.76037 14.8197 8.70063 14.3122 8.77428 13.8154C8.84794 13.3185 9.05234 12.8502 9.36656 12.4583C9.44252 12.3633 9.53889 12.2866 9.64852 12.2339C9.75815 12.1812 9.87824 12.1538 9.99989 12.1538C10.1215 12.1538 10.2416 12.1812 10.3513 12.2339C10.4609 12.2866 10.5573 12.3633 10.6332 12.4583C11.2716 13.2567 11.4316 14.3367 11.0524 15.2858L10.8332 15.8333" stroke="#856C66"/>
</svg>
