<svg width="36" height="35" viewBox="0 0 36 35" fill="none" xmlns="http://www.w3.org/2000/svg">
<path d="M18 0.75C27.2508 0.75 34.75 8.24923 34.75 17.5C34.75 26.7508 27.2508 34.25 18 34.25C8.74923 34.25 1.25 26.7508 1.25 17.5C1.25 8.24923 8.74923 0.75 18 0.75Z" stroke="#856C66" stroke-width="1.5"/>
<path d="M10.5 11.875C10.5 11.3777 10.6975 10.9008 11.0492 10.5492C11.4008 10.1975 11.8777 10 12.375 10H20.2917C20.7889 10 21.2659 10.1975 21.6175 10.5492C21.9691 10.9008 22.1667 11.3777 22.1667 11.875V19.1667H25.5V22.2917C25.5 23.01 25.2147 23.6988 24.7067 24.2067C24.1988 24.7147 23.51 25 22.7917 25H13.2083C12.49 25 11.8012 24.7147 11.2933 24.2067C10.7853 23.6988 10.5 23.01 10.5 22.2917V11.875ZM22.1667 23.75H22.7917C23.1784 23.75 23.5494 23.5964 23.8229 23.3229C24.0964 23.0494 24.25 22.6784 24.25 22.2917V20.4167H22.1667V23.75ZM12.375 11.25C12.2092 11.25 12.0503 11.3158 11.9331 11.4331C11.8158 11.5503 11.75 11.7092 11.75 11.875V22.2917C11.75 23.0967 12.4033 23.75 13.2083 23.75H20.9167V11.875C20.9167 11.7092 20.8508 11.5503 20.7336 11.4331C20.6164 11.3158 20.4574 11.25 20.2917 11.25H12.375ZM14.0417 13.3333C13.8759 13.3333 13.7169 13.3992 13.5997 13.5164C13.4825 13.6336 13.4167 13.7926 13.4167 13.9583C13.4167 14.1241 13.4825 14.2831 13.5997 14.4003C13.7169 14.5175 13.8759 14.5833 14.0417 14.5833H18.625C18.7908 14.5833 18.9497 14.5175 19.0669 14.4003C19.1842 14.2831 19.25 14.1241 19.25 13.9583C19.25 13.7926 19.1842 13.6336 19.0669 13.5164C18.9497 13.3992 18.7908 13.3333 18.625 13.3333H14.0417ZM13.4167 17.2917C13.4167 17.1259 13.4825 16.9669 13.5997 16.8497C13.7169 16.7325 13.8759 16.6667 14.0417 16.6667H18.625C18.7908 16.6667 18.9497 16.7325 19.0669 16.8497C19.1842 16.9669 19.25 17.1259 19.25 17.2917C19.25 17.4574 19.1842 17.6164 19.0669 17.7336C18.9497 17.8508 18.7908 17.9167 18.625 17.9167H14.0417C13.8759 17.9167 13.7169 17.8508 13.5997 17.7336C13.4825 17.6164 13.4167 17.4574 13.4167 17.2917ZM14.0417 20C13.8759 20 13.7169 20.0658 13.5997 20.1831C13.4825 20.3003 13.4167 20.4592 13.4167 20.625C13.4167 20.7908 13.4825 20.9497 13.5997 21.0669C13.7169 21.1842 13.8759 21.25 14.0417 21.25H16.5417C16.7074 21.25 16.8664 21.1842 16.9836 21.0669C17.1008 20.9497 17.1667 20.7908 17.1667 20.625C17.1667 20.4592 17.1008 20.3003 16.9836 20.1831C16.8664 20.0658 16.7074 20 16.5417 20H14.0417Z" fill="#856C66"/>
</svg>
