<svg width="71" height="70" viewBox="0 0 71 70" fill="none" xmlns="http://www.w3.org/2000/svg">
<path d="M25.7085 31.2083L44.9585 21.2917M25.7085 38.7917L44.9585 48.7083M9.0835 35C9.0835 37.3206 10.0054 39.5462 11.6463 41.1872C13.2873 42.8281 15.5129 43.75 17.8335 43.75C20.1541 43.75 22.3797 42.8281 24.0207 41.1872C25.6616 39.5462 26.5835 37.3206 26.5835 35C26.5835 32.6794 25.6616 30.4538 24.0207 28.8128C22.3797 27.1719 20.1541 26.25 17.8335 26.25C15.5129 26.25 13.2873 27.1719 11.6463 28.8128C10.0054 30.4538 9.0835 32.6794 9.0835 35ZM44.0835 17.5C44.0835 19.8206 45.0054 22.0462 46.6463 23.6872C48.2873 25.3281 50.5129 26.25 52.8335 26.25C55.1541 26.25 57.3797 25.3281 59.0207 23.6872C60.6616 22.0462 61.5835 19.8206 61.5835 17.5C61.5835 15.1794 60.6616 12.9538 59.0207 11.3128C57.3797 9.67187 55.1541 8.75 52.8335 8.75C50.5129 8.75 48.2873 9.67187 46.6463 11.3128C45.0054 12.9538 44.0835 15.1794 44.0835 17.5ZM44.0835 52.5C44.0835 54.8206 45.0054 57.0462 46.6463 58.6872C48.2873 60.3281 50.5129 61.25 52.8335 61.25C55.1541 61.25 57.3797 60.3281 59.0207 58.6872C60.6616 57.0462 61.5835 54.8206 61.5835 52.5C61.5835 50.1794 60.6616 47.9538 59.0207 46.3128C57.3797 44.6719 55.1541 43.75 52.8335 43.75C50.5129 43.75 48.2873 44.6719 46.6463 46.3128C45.0054 47.9538 44.0835 50.1794 44.0835 52.5Z" stroke="#856C66" stroke-width="2" stroke-linecap="round" stroke-linejoin="round"/>
</svg>
