<svg width="30" height="30" viewBox="0 0 30 30" fill="none" xmlns="http://www.w3.org/2000/svg">
<g clip-path="url(#clip0_80_996)">
<path fill-rule="evenodd" clip-rule="evenodd" d="M15 0C6.7155 0 0 6.15704 0 13.7526C0 21.3482 6.7155 27.5052 15 27.5052C23.2845 27.5052 30 21.3482 30 13.7526C30 6.15704 23.2845 0 15 0ZM9.75 10.3145C9.75 9.68235 9.88579 9.05644 10.1496 8.47245C10.4135 7.88845 10.8002 7.35783 11.2877 6.91086C11.7752 6.46389 12.354 6.10934 12.9909 5.86744C13.6279 5.62555 14.3106 5.50104 15 5.50104C15.6894 5.50104 16.3721 5.62555 17.0091 5.86744C17.646 6.10934 18.2248 6.46389 18.7123 6.91086C19.1998 7.35783 19.5865 7.88845 19.8504 8.47245C20.1142 9.05644 20.25 9.68235 20.25 10.3145C20.25 11.5911 19.6969 12.8154 18.7123 13.7181C17.7277 14.6207 16.3924 15.1279 15 15.1279C13.6076 15.1279 12.2723 14.6207 11.2877 13.7181C10.3031 12.8154 9.75 11.5911 9.75 10.3145ZM24.387 20.6069C23.2638 21.9015 21.8363 22.9469 20.2109 23.6651C18.5855 24.3833 16.8043 24.7557 15 24.7547C13.1957 24.7557 11.4145 24.3833 9.78911 23.6651C8.16374 22.9469 6.73621 21.9015 5.613 20.6069C8.0445 19.0075 11.3625 17.8784 15 17.8784C18.6375 17.8784 21.9555 19.0075 24.387 20.6069Z" fill="#856C66"/>
</g>
<defs>
<clipPath id="clip0_80_996">
<rect width="30" height="30" fill="white"/>
</clipPath>
</defs>
</svg>
