<svg width="71" height="70" viewBox="0 0 71 70" fill="none" xmlns="http://www.w3.org/2000/svg">
<path d="M35.6665 43.75C40.499 43.75 44.4165 39.8325 44.4165 35C44.4165 30.1675 40.499 26.25 35.6665 26.25C30.834 26.25 26.9165 30.1675 26.9165 35C26.9165 39.8325 30.834 43.75 35.6665 43.75Z" stroke="#856C66" stroke-width="2"/>
<path d="M59.5482 31.8908C60.6799 33.2675 61.2457 33.9529 61.2457 35C61.2457 36.0471 60.6799 36.7325 59.5482 38.1092C55.4066 43.1375 46.2716 52.5 35.6666 52.5C25.0616 52.5 15.9266 43.1375 11.7849 38.1092C10.6532 36.7325 10.0874 36.0471 10.0874 35C10.0874 33.9529 10.6532 33.2675 11.7849 31.8908C15.9266 26.8625 25.0616 17.5 35.6666 17.5C46.2716 17.5 55.4066 26.8625 59.5482 31.8908Z" stroke="#856C66" stroke-width="2"/>
</svg>
